<svg width="140" height="86" viewBox="0 0 140 86" fill="none" xmlns="http://www.w3.org/2000/svg">
<path d="M79.8605 6.63635C76.7726 6.66359 73.7713 7.66413 71.2812 9.49648C70.7257 9.85278 70.0803 10.0421 69.421 10.0421C68.7617 10.0421 68.1163 9.85278 67.5608 9.49648C65.069 7.66361 62.0659 6.66307 58.9762 6.63635C50.9474 6.63635 44.6577 14.0977 44.6577 23.6183C44.6577 27.5939 46.4252 31.0511 47.9843 34.1007L48.2765 34.6727C50.771 39.5743 52.6437 43.9878 54.1564 47.5433C57.4118 55.2013 59.3753 59.8222 63.3326 59.8222C67.3577 59.8222 68.0775 56.0933 68.0775 53.9232C68.0775 47.6523 68.9542 47.0696 69.4264 47.0696C69.8985 47.0696 72.5142 47.5361 72.5142 54.8116C72.5142 56.3257 71.9903 59.8168 75.5183 59.8168C79.4756 59.8168 81.4409 55.1959 84.6963 47.5379C86.2054 43.9842 88.0817 39.5618 90.5762 34.6674L90.8684 34.0953C92.4275 31.0565 94.1968 27.6082 94.1968 23.613C94.179 14.0959 87.8893 6.63635 79.8605 6.63635Z" fill="#5A308F"/>
<path d="M56.9786 31.2835L56.9662 31.2978C56.8249 31.4443 56.7165 31.6195 56.6481 31.8114C56.5798 32.0034 56.5532 32.2078 56.5701 32.4109C56.587 32.6141 56.6469 32.8113 56.746 32.9892C56.845 33.1672 56.9809 33.3219 57.1444 33.4429C61.9552 37.0324 71.9457 39.9872 82.9393 30.6936C83.0865 30.5691 83.2069 30.4159 83.2934 30.2434C83.38 30.0708 83.4308 29.8825 83.4427 29.6897C83.4547 29.4969 83.4277 29.3037 83.3632 29.1217C83.2987 28.9397 83.1982 28.7727 83.0676 28.6308C82.8177 28.3551 82.4705 28.1881 82.0997 28.1654C81.729 28.1427 81.3641 28.266 81.0827 28.5092C70.2138 37.717 61.6612 33.1408 58.8495 31.1119C58.5699 30.9082 58.2261 30.8132 57.8819 30.8448C57.5378 30.8763 57.2167 31.0323 56.9786 31.2835Z" fill="#BF9BB5"/>
<path d="M86.8308 24.5352C86.2587 23.9905 85.3548 24.0142 84.8119 24.5882C84.269 25.1622 84.2927 26.069 84.8648 26.6137C85.4369 27.1584 86.3408 27.1346 86.8837 26.5607C87.4266 25.9867 87.4029 25.0798 86.8308 24.5352Z" fill="#BF9BB5"/>
<path d="M80.7282 6.1001C77.5552 6.13141 74.4724 7.16259 71.9155 9.04781C71.3449 9.41382 70.6818 9.60831 70.0045 9.60831C69.3273 9.60831 68.6642 9.41382 68.0936 9.04781C65.5348 7.16228 62.4501 6.13114 59.2755 6.1001C51.0276 6.1001 44.5686 13.7634 44.5686 23.5469C44.5686 27.6315 46.3842 31.1816 47.9861 34.3152L48.2854 34.9016C50.8441 39.9354 52.772 44.4705 54.3203 48.1136C57.663 55.9789 59.6818 60.7267 63.746 60.7267C67.8798 60.7267 68.6192 56.8959 68.6192 54.6722C68.6192 48.2369 69.5208 47.6327 70.0036 47.6327C70.4865 47.6327 71.3899 48.1118 71.3899 55.5856C71.3899 57.139 72.6371 60.7267 76.2631 60.7267C80.3273 60.7267 82.3461 55.9789 85.6887 48.1118C87.2406 44.4633 89.1721 39.9193 91.7236 34.9034L92.023 34.3152C93.6266 31.1905 95.4404 27.6511 95.4404 23.5469C95.4351 13.7599 88.9814 6.1001 80.7282 6.1001ZM89.7102 33.1229L89.4055 33.7182C86.8219 38.8003 84.8709 43.389 83.2976 47.0911C80.5768 53.496 78.6097 58.124 76.2577 58.124C74.8323 58.124 73.9788 56.9603 73.9788 54.6382C73.9788 47.6899 72.7529 45.0032 69.9983 45.0032C66.8534 45.0032 66.0195 48.3996 66.0195 55.3461C66.0195 56.66 65.1625 58.124 63.7407 58.124C61.3887 58.124 59.4216 53.496 56.6972 47.0821C55.1293 43.3943 53.1764 38.8038 50.5911 33.7182L50.2882 33.1229C48.82 30.2539 47.1575 27.0005 47.1575 23.5469C47.1575 15.2239 52.478 8.70996 59.2737 8.70996C61.8975 8.73363 64.4469 9.58685 66.5594 11.1482C69.2637 12.9437 72.4529 13.8617 75.6946 13.7777C77.8969 13.7634 80.0832 13.4015 82.1732 12.7052C82.481 12.635 82.7534 12.4565 82.9411 12.2019C83.1287 11.9474 83.2192 11.6338 83.196 11.318C83.1691 10.9981 83.0283 10.6986 82.7992 10.4743C82.5702 10.2501 82.2682 10.1162 81.9487 10.0971C81.6897 10.0849 81.433 10.1503 81.2111 10.2848C78.7692 11.0955 76.1773 11.3466 73.626 11.0195C75.7047 9.5315 78.189 8.72027 80.7425 8.69567C87.5346 8.69567 92.8586 15.215 92.8586 23.5326C92.8408 26.9969 91.1784 30.2503 89.7102 33.1194V33.1229Z" fill="#BF9BB5"/>
<path d="M81.3909 31.4087C81.3316 31.3228 81.2468 31.258 81.1485 31.2237C81.0502 31.1893 80.9435 31.1871 80.8439 31.2174C80.2363 31.3962 79.675 31.616 79.251 31.7805C78.7556 31.9503 78.2799 32.1255 77.7329 32.3311L76.9792 32.5902C76.8669 32.6278 76.7565 32.6689 76.646 32.71C76.5088 32.7619 76.377 32.8101 76.2469 32.8477C76.0153 32.9174 75.789 32.9925 75.5698 33.0657C75.2919 33.1605 75.0353 33.2445 74.7484 33.325L74.5863 33.3732C74.1373 33.5073 73.715 33.6324 73.2749 33.7415L72.9007 33.838L71.7996 34.0936C71.6606 34.1276 71.518 34.1526 71.3648 34.1794L71.0815 34.2312L70.8748 34.2706C70.6966 34.3045 70.5363 34.3367 70.3759 34.3528H70.3563L69.624 34.4601L68.8988 34.5334C66.958 34.7235 65 34.6283 63.0866 34.2509C62.1023 34.0549 61.133 33.7897 60.1858 33.4572C59.1883 33.1111 58.2171 32.6929 57.2798 32.2059C57.1873 32.158 57.0821 32.1408 56.9792 32.1568C56.8764 32.1729 56.7813 32.2214 56.7078 32.2953C56.6346 32.3684 56.5872 32.4636 56.5731 32.5663C56.5589 32.6689 56.5787 32.7734 56.6294 32.8637C56.9302 33.388 57.2934 33.8736 57.711 34.3099C58.1181 34.7456 58.5577 35.1495 59.0259 35.5183C59.9763 36.2572 61.0208 36.8656 62.1316 37.3273C62.3258 37.4042 62.52 37.4775 62.716 37.5526L62.9583 37.6419H62.9797C63.1739 37.7045 63.3699 37.7635 63.5659 37.8207L63.8296 37.8994H63.8528L63.9543 37.9244C64.2056 37.987 64.4639 38.0513 64.7347 38.1031C64.9361 38.1407 65.1375 38.1746 65.3406 38.2086L65.6256 38.2569C66.152 38.3318 66.6819 38.3784 67.2132 38.3963C67.8979 38.4209 68.5834 38.403 69.2659 38.3427L70.1371 38.2444H70.1692L71.0245 38.0906C71.3238 38.0388 71.6089 37.9655 71.8869 37.894L72.3288 37.7778C72.5069 37.7331 72.6548 37.6884 72.7849 37.6419L73.1056 37.5329C73.5594 37.3897 74.0049 37.2214 74.4401 37.0288C74.5275 36.9895 74.6183 36.9537 74.7056 36.9162C74.8838 36.8411 75.062 36.766 75.2509 36.6713L76.0153 36.2762C78.0594 35.1988 79.8749 33.7325 81.3606 31.9592C81.4218 31.8819 81.4576 31.7874 81.463 31.6888C81.4684 31.5902 81.4432 31.4923 81.3909 31.4087Z" fill="white"/>
</svg>
