<svg width="72" height="70" viewBox="0 0 72 70" fill="none" xmlns="http://www.w3.org/2000/svg">
<rect x="0.983887" y="0.279297" width="70.6195" height="69.6106" rx="10.0885" fill="#272B34"/>
<path d="M34.1168 35.0864L25.683 35.0864M52.7511 34.1292C52.9305 34.2165 53.0817 34.3526 53.1875 34.5218C53.2932 34.691 53.3492 34.8866 53.3491 35.0861C53.3489 35.2857 53.2926 35.4812 53.1867 35.6502C53.0807 35.8193 52.9293 35.9551 52.7497 36.0422L20.6256 51.5125C20.4335 51.605 20.2181 51.6375 20.0073 51.606C19.7965 51.5745 19.6 51.4804 19.4433 51.3358C19.2866 51.1913 19.177 51.003 19.1287 50.7954C19.0803 50.5878 19.0955 50.3705 19.1722 50.1716L24.827 35.4673C24.9213 35.2221 24.9213 34.9507 24.827 34.7055L19.1736 19.9999C19.0976 19.8012 19.0829 19.5843 19.1314 19.3772C19.1799 19.1701 19.2894 18.9823 19.4457 18.8381C19.6021 18.6939 19.798 18.5998 20.0084 18.5681C20.2187 18.5364 20.4337 18.5685 20.6256 18.6603L52.7511 34.1292Z" stroke="white" stroke-width="3.39973" stroke-linecap="round" stroke-linejoin="round"/>
</svg>

